<svg id="SvgjsSvg1012" width="288" height="288" xmlns="http://www.w3.org/2000/svg" version="1.1" xmlns:xlink="http://www.w3.org/1999/xlink" xmlns:svgjs="http://svgjs.com/svgjs"><defs id="SvgjsDefs1013"></defs><g id="SvgjsG1014"><svg xmlns="http://www.w3.org/2000/svg" width="288" height="288" enable-background="new 0 0 510.757 510.757" viewBox="0 0 510.757 510.757"><path d="M157.089 432.909h-69.83c-5.471 0-9.922-4.451-9.922-9.923v-81.334c0-4.142-3.358-7.5-7.5-7.5s-7.5 3.358-7.5 7.5v81.334c0 13.743 11.18 24.923 24.922 24.923h69.831c4.142 0 7.5-3.358 7.5-7.5s-3.359-7.5-7.501-7.5zM69.836 317.189c4.142 0 7.5-3.358 7.5-7.5v-284.766c0-5.472 4.451-9.923 9.922-9.923h256.947c4.142 0 7.5-3.358 7.5-7.5s-3.358-7.5-7.5-7.5h-256.946c-13.743 0-24.923 11.18-24.923 24.923v284.767c0 4.142 3.358 7.499 7.5 7.499zM423.499 0h-47.331c-4.142 0-7.5 3.358-7.5 7.5s3.358 7.5 7.5 7.5h47.331c5.471 0 9.922 4.451 9.922 9.923v398.063c0 5.472-4.451 9.923-9.922 9.923h-70.831c-4.142 0-7.5 3.358-7.5 7.5s3.358 7.5 7.5 7.5h70.831c13.742 0 24.922-11.18 24.922-24.923v-398.063c0-13.743-11.18-24.923-24.922-24.923z" fill="#069c59" class="color000 svgShape"></path><path d="m358.413 360.993c0-20.812-6.153-40.884-17.794-58.048-2.326-3.428-6.989-4.322-10.417-1.997s-4.322 6.989-1.997 10.417c9.949 14.669 15.208 31.83 15.208 49.628 0 48.818-39.716 88.535-88.535 88.535s-88.535-39.717-88.535-88.535 39.716-88.535 88.535-88.535c19.242 0 37.538 6.066 52.91 17.543 3.319 2.478 8.019 1.796 10.497-1.523s1.796-8.019-1.523-10.497c-17.984-13.427-39.383-20.523-61.883-20.523-57.089 0-103.535 46.445-103.535 103.535 0 35.321 17.783 66.562 44.862 85.256v50.695c0 4.168 1.856 8.065 5.092 10.692 3.236 2.626 7.43 3.642 11.512 2.785l40.958-8.61 42.246 8.662c.927.19 1.859.284 2.786.284 3.139 0 6.2-1.075 8.686-3.104 3.219-2.626 5.066-6.516 5.066-10.671v-50.046c27.641-18.609 45.861-50.187 45.861-85.943zm-147.207 134.438v-40.579c4.752 2.22 9.697 4.091 14.806 5.576v31.89zm41-8.619-11.195 2.353v-25.568c4.538.61 9.165.931 13.867.931 3.924 0 7.796-.227 11.608-.654v25.234l-11.231-2.303c-1.006-.207-2.044-.204-3.049.007zm45.346 8.665-16.065-3.294v-31.127c5.55-1.477 10.92-3.4 16.065-5.736z" fill="#069c59" class="color000 svgShape"></path><path d="m254.879 287.458c-40.547 0-73.535 32.987-73.535 73.535s32.987 73.535 73.535 73.535 73.535-32.988 73.535-73.535-32.988-73.535-73.535-73.535zm0 132.07c-32.276 0-58.535-26.259-58.535-58.535s26.258-58.535 58.535-58.535 58.535 26.259 58.535 58.535c-.001 32.277-26.259 58.535-58.535 58.535z" fill="#069c59" class="color000 svgShape"></path><path d="m284.899 338.734-12.526-1.82-5.602-11.351c-2.251-4.56-6.808-7.393-11.893-7.393s-9.642 2.833-11.893 7.393l-5.602 11.351-12.527 1.82c-5.032.731-9.134 4.19-10.706 9.026-1.571 4.836-.285 10.045 3.356 13.595l9.064 8.835-2.14 12.476c-.86 5.011 1.162 9.981 5.275 12.971 4.114 2.989 9.465 3.376 13.968 1.01l11.204-5.89 11.204 5.89c1.958 1.029 4.076 1.538 6.184 1.537 2.738 0 5.459-.858 7.784-2.547 4.113-2.989 6.135-7.959 5.275-12.97l-2.14-12.476 9.064-8.835c3.642-3.549 4.927-8.758 3.356-13.595-1.57-4.836-5.672-8.295-10.705-9.027zm-12.837 21.352c-3.127 3.048-4.553 7.437-3.815 11.739l1.699 9.906-8.894-4.676c-1.933-1.017-4.053-1.525-6.173-1.525s-4.239.508-6.171 1.524l-8.896 4.677 1.699-9.905c.738-4.304-.688-8.692-3.814-11.739l-7.197-7.015 9.947-1.445c4.32-.628 8.052-3.34 9.984-7.255l4.448-9.012 4.448 9.012c1.932 3.915 5.665 6.626 9.986 7.255l9.946 1.445z" fill="#069c59" class="color000 svgShape"></path><path d="m370.816 417.909h27.514c3.153 0 6.117-1.228 8.346-3.458l8.287-8.287c2.229-2.229 3.458-5.194 3.458-8.346v-346.58c0-3.153-1.228-6.117-3.458-8.347l-9.434-9.434c-2.229-2.229-5.194-3.458-8.347-3.458h-284.608c-3.153 0-6.117 1.228-8.347 3.458l-8.434 8.434c-2.229 2.229-3.458 5.194-3.458 8.347v348.58c0 3.152 1.228 6.117 3.458 8.346l7.287 7.287c2.229 2.229 5.193 3.458 8.346 3.458h27.514c4.142 0 7.5-3.358 7.5-7.5s-3.358-7.5-7.5-7.5h-26.19l-5.415-5.415v-345.932l6.563-6.562h281.962l7.562 7.562v343.932l-6.415 6.415h-26.19c-4.142 0-7.5 3.358-7.5 7.5s3.357 7.5 7.499 7.5z" fill="#069c59" class="color000 svgShape"></path><path d="M156.925 137.983h194.907c8.742 0 15.854-7.112 15.854-15.854v-33.996c0-8.742-7.112-15.854-15.854-15.854h-194.907c-8.742 0-15.854 7.112-15.854 15.854v33.996c0 8.742 7.112 15.854 15.854 15.854zm-.854-49.85c0-.471.383-.854.854-.854h194.907c.471 0 .854.383.854.854v33.996c0 .471-.383.854-.854.854h-194.907c-.471 0-.854-.383-.854-.854zM148.571 171.285h211.616c4.142 0 7.5-3.358 7.5-7.5s-3.358-7.5-7.5-7.5h-211.616c-4.142 0-7.5 3.358-7.5 7.5s3.357 7.5 7.5 7.5zM148.571 208.748h211.616c4.142 0 7.5-3.358 7.5-7.5s-3.358-7.5-7.5-7.5h-211.616c-4.142 0-7.5 3.358-7.5 7.5s3.357 7.5 7.5 7.5zM148.571 246.21h211.616c4.142 0 7.5-3.358 7.5-7.5s-3.358-7.5-7.5-7.5h-211.616c-4.142 0-7.5 3.358-7.5 7.5s3.357 7.5 7.5 7.5z" fill="#069c59" class="color000 svgShape"></path></svg></g></svg>