<svg id="SvgjsSvg1022" width="288" height="288" xmlns="http://www.w3.org/2000/svg" version="1.1" xmlns:xlink="http://www.w3.org/1999/xlink" xmlns:svgjs="http://svgjs.com/svgjs"><defs id="SvgjsDefs1023"></defs><g id="SvgjsG1024"><svg xmlns="http://www.w3.org/2000/svg" width="288" height="288" enable-background="new 0 0 512 512" viewBox="0 0 512 512"><linearGradient id="a" x1="256" x2="256" y1="481" y2="31" gradientUnits="userSpaceOnUse"><stop offset="0" stop-color="#069c59" class="stopColor00b59c svgShape"></stop><stop offset="1" stop-color="#9cffac" class="stopColor9cffac svgShape"></stop></linearGradient><path fill="url(#a)" d="m15 121h122c8.284 0 15-6.716 15-15s-6.716-15-15-15h-122c-8.284 0-15 6.716-15 15s6.716 15 15 15zm32 150h-32c-8.284 0-15 6.716-15 15s6.716 15 15 15h32c8.284 0 15-6.716 15-15s-6.716-15-15-15zm349.394-85.607-60.004 60.004c-5.876-2.816-12.451-4.397-19.39-4.397-24.813 0-45 20.187-45 45s20.187 45 45 45 45-20.187 45-45c0-6.939-1.581-13.514-4.398-19.389l60.004-60.004c5.858-5.858 5.858-15.355 0-21.213-5.857-5.859-15.355-5.858-21.212-.001zm-79.394 115.607c-8.271 0-15-6.729-15-15s6.729-15 15-15 15 6.729 15 15-6.729 15-15 15zm15-209.429v-30.571h15c8.284 0 15-6.716 15-15s-6.716-15-15-15h-60c-8.284 0-15 6.716-15 15s6.716 15 15 15h15v30.571c-100.542 7.685-180 91.952-180 194.429 0 107.523 87.477 195 195 195s195-87.477 195-195c0-102.477-79.458-186.744-180-194.429zm0 358.74v-14.311c0-8.284-6.716-15-15-15s-15 6.716-15 15v14.311c-79.035-7.157-142.154-70.276-149.311-149.311h14.311c8.284 0 15-6.716 15-15s-6.716-15-15-15h-14.311c7.157-79.035 70.276-142.154 149.311-149.311v14.311c0 8.284 6.716 15 15 15s15-6.716 15-15v-14.311c79.035 7.157 142.154 70.276 149.311 149.311h-14.311c-8.284 0-15 6.716-15 15s6.716 15 15 15h14.311c-7.157 79.035-70.276 142.154-149.311 149.311zm-225-269.311h-92c-8.284 0-15 6.716-15 15s6.716 15 15 15h92c8.284 0 15-6.716 15-15s-6.716-15-15-15z"></path></svg></g></svg>