<svg width="16" height="16" fill="none" xmlns="http://www.w3.org/2000/svg"><path d="m0 16 1.376-4.128a7.862 7.862 0 1 1 3.104 2.949L0 16z" fill="#2CB742"/><path d="M13.154 10.479c-.363-.686-1.702-1.47-1.702-1.47-.303-.174-.668-.193-.84.115 0 0-.436.522-.546.597-.506.342-.974.329-1.447-.144L7.521 8.48 6.423 7.381c-.473-.473-.486-.94-.143-1.446.075-.11.596-.546.596-.546.308-.173.289-.538.116-.841 0 0-.784-1.339-1.47-1.702a.752.752 0 0 0-.884.133l-.485.485c-1.539 1.539-.781 3.275.757 4.814l1.407 1.406 1.406 1.406c1.538 1.539 3.275 2.296 4.813.758l.485-.485a.753.753 0 0 0 .133-.884z" fill="#fff"/></svg>